<svg width="38" height="42" viewBox="0 0 38 42" fill="none" xmlns="http://www.w3.org/2000/svg">
<path d="M15.2316 38.2083C15.5754 38.8037 16.0698 39.2981 16.6652 39.6418C17.2606 39.9855 17.936 40.1665 18.6235 40.1665C19.3109 40.1665 19.9863 39.9855 20.5817 39.6418C21.1771 39.2981 21.6715 38.8037 22.0153 38.2083" fill="#FFA500"/>
<path d="M1.51165 27.0968C1.25582 27.3771 1.087 27.7258 1.0257 28.1004C0.96441 28.475 1.01329 28.8593 1.16641 29.2067C1.31953 29.554 1.57028 29.8493 1.88815 30.0567C2.20603 30.2641 2.57734 30.3747 2.9569 30.375H34.2902C34.6698 30.3751 35.0411 30.265 35.3592 30.058C35.6773 29.8509 35.9284 29.5559 36.0819 29.2088C36.2354 28.8618 36.2848 28.4775 36.224 28.1029C36.1632 27.7283 35.9948 27.3794 35.7394 27.0987C33.1348 24.4138 30.3736 21.5605 30.3736 12.75C30.3736 9.63371 29.1356 6.64505 26.9321 4.4415C24.7285 2.23794 21.7399 1 18.6236 1C15.5073 1 12.5186 2.23794 10.3151 4.4415C8.11151 6.64505 6.87357 9.63371 6.87357 12.75C6.87357 21.5605 4.11036 24.4138 1.51165 27.0968Z" fill="#FFA500"/>
<path d="M15.2316 38.2083C15.5754 38.8037 16.0698 39.2981 16.6652 39.6418C17.2606 39.9855 17.936 40.1665 18.6235 40.1665C19.3109 40.1665 19.9863 39.9855 20.5817 39.6418C21.1771 39.2981 21.6715 38.8037 22.0153 38.2083M1.51165 27.0968C1.25582 27.3771 1.087 27.7258 1.0257 28.1004C0.96441 28.475 1.01329 28.8593 1.16641 29.2067C1.31953 29.554 1.57028 29.8493 1.88815 30.0567C2.20603 30.2641 2.57734 30.3747 2.9569 30.375H34.2902C34.6698 30.3751 35.0411 30.265 35.3592 30.058C35.6773 29.8509 35.9284 29.5559 36.0819 29.2088C36.2354 28.8618 36.2848 28.4775 36.224 28.1029C36.1632 27.7283 35.9948 27.3794 35.7394 27.0987C33.1348 24.4138 30.3736 21.5605 30.3736 12.75C30.3736 9.63371 29.1356 6.64505 26.9321 4.4415C24.7285 2.23794 21.7399 1 18.6236 1C15.5073 1 12.5186 2.23794 10.3151 4.4415C8.11151 6.64505 6.87357 9.63371 6.87357 12.75C6.87357 21.5605 4.11036 24.4138 1.51165 27.0968Z" stroke="#09090B" stroke-width="2" stroke-linecap="round" stroke-linejoin="round"/>
</svg>
